<svg xmlns="http://www.w3.org/2000/svg" viewBox="0 0 64 80" x="0px" y="0px"><defs><style>.cls-1{fill:none;stroke:#000;stroke-miterlimit:10;stroke-width:2px;}</style></defs><title>maple-leaf-christmas-winter</title><g data-name="Layer 3"><polygon class="cls-1" points="16 48 32 46 48 48 44 44 57 31 54 28 56 22 50 24 47 21 41 27 43 8 37 10 32 4 27 10 21 8 23 27 17 21 14 24 8 22 10 28 7 31 20 44 16 48"/><polygon class="cls-1" points="30 61 34 61 33 47 31 47 30 61"/><line class="cls-1" x1="32" y1="43" x2="32" y2="21"/><polyline class="cls-1" points="43 33 33 42 31 42 20 33"/></g></svg>