<svg xmlns="http://www.w3.org/2000/svg" data-name="Layer 1" viewBox="0 0 64 80" x="0px" y="0px"><title>Sports Avatar</title><path d="M58.62,56.24l-.26-.97-.89-3.31-1.5-5.58a5.134,5.134,0,0,0-2.45-3.15l-11.58-6.4-2.16-1.2-.7-.38-.28-.1c-.64-.24-1.25-.44-1.85-.61V29.69l1.89-.84a3.266,3.266,0,0,0,1.94-2.98V22.84l.9-.27a2.571,2.571,0,0,0,1.85-2.46v-.62a2.573,2.573,0,0,0-2.2-2.54,1.514,1.514,0,0,0,.1-.53V15a1.484,1.484,0,0,0-.65-1.23V10.94a4.421,4.421,0,0,0-.59-2.17,4.332,4.332,0,0,0-1.14-1.3,5.1,5.1,0,0,0-3.08-1.03H29.16A4.109,4.109,0,0,1,25.6,4.37L24.36,2.2,21.93,4.48a6.068,6.068,0,0,0-.53,8.21,6.8,6.8,0,0,0,1.49,1.39,1.467,1.467,0,0,0-.32.92v1.42a1.317,1.317,0,0,0,.1.53,2.573,2.573,0,0,0-2.2,2.54v.62a2.571,2.571,0,0,0,1.85,2.46l.9.27v3.03a3.266,3.266,0,0,0,1.94,2.98l1.89.84v4.74a11.588,11.588,0,0,0-1.88.69l-.01-.01-.24.14-.06.03-2.8,1.55-11.58,6.4a5.134,5.134,0,0,0-2.45,3.15l-1.5,5.58-.89,3.31-.26.97L3.97,61.5H60.03Zm-1.25-.78L46.83,57.43V55.15l9.92-2.02ZM38.95,36.32l1.62.89-4.24,7.43-3.56-3.18,4.18-3.48ZM32,40.79l-3.91-3.24-.04-.04V30.13l2.63,1.17a3.278,3.278,0,0,0,2.64,0l2.63-1.17v7.38l-.04.04Zm5.9-4.9-.95.79v-1.1C37.26,35.68,37.58,35.78,37.9,35.89Zm.12-17.97h1.76V20.1h-.42a1.34,1.34,0,0,1-1.34-1.34Zm4.51,1.57v.62a1.563,1.563,0,0,1-1.13,1.5l-.62.19V17.92h.18A1.573,1.573,0,0,1,42.53,19.49ZM23.22,21.8l-.62-.19a1.563,1.563,0,0,1-1.13-1.5v-.62a1.573,1.573,0,0,1,1.57-1.57h.18Zm-1.1-9.81a5.058,5.058,0,0,1,.49-6.78L24.12,3.8l.61,1.06a5.1,5.1,0,0,0,4.43,2.58h6.81a4.112,4.112,0,0,1,2.48.83,3.244,3.244,0,0,1,.87,1,3.307,3.307,0,0,1,.46,1.67V13.5H24.07a.468.468,0,0,0-.17.02h-.01a4.452,4.452,0,0,1-.58-.38A5.859,5.859,0,0,1,22.12,11.99Zm1.45,4.43V15a.516.516,0,0,1,.5-.5H39.93a.5.5,0,0,1,.5.5v1.42a.5.5,0,0,1-.5.5H24.07A.5.5,0,0,1,23.57,16.42Zm2.41,1.5v.84a1.34,1.34,0,0,1-1.34,1.34h-.42V17.92Zm-.41,10.01a2.254,2.254,0,0,1-1.35-2.06V21.1h.42a2.343,2.343,0,0,0,2.34-2.34v-.84H37.02v.84a2.343,2.343,0,0,0,2.34,2.34h.42v4.77a2.254,2.254,0,0,1-1.35,2.06l-1.48.66-4.03,1.8a2.268,2.268,0,0,1-1.84,0l-4.03-1.8Zm1.48,7.55v1.2l-1.01-.84C26.3,35.73,26.64,35.61,27.05,35.48Zm-2,.84,2,1.66,4.18,3.48-3.56,3.18-4.24-7.43ZM17.17,60.5H5.28l1.09-4.07,4.55.85,6.25,1.17Zm0-3.07L6.63,55.46l.62-2.33,9.92,2.02ZM45.83,60.5H18.17V54.33L7.51,52.16l1.48-5.53a4.16,4.16,0,0,1,1.98-2.52L22.56,37.7l4.86,8.51,4.08-3.65V53.72h1V42.56l4.08,3.65,4.86-8.51,11.59,6.41a4.16,4.16,0,0,1,1.98,2.52l1.48,5.53L45.83,54.33Zm1-2.05,6.25-1.17,4.55-.85,1.09,4.07H46.83Z"/><circle cx="34.522" cy="47.638" r="0.804"/><circle cx="34.522" cy="51.638" r="0.804"/><path d="M11.843,25.07a5,5,0,1,0,5,5A4.992,4.992,0,0,0,11.843,25.07ZM15.765,29.3a2.378,2.378,0,0,1-3.159-3.157A4,4,0,0,1,15.765,29.3ZM7.916,30.842a2.374,2.374,0,0,1,3.161,3.15A4.008,4.008,0,0,1,7.916,30.842Zm4.207,3.2A3.362,3.362,0,0,0,7.857,29.8a3.957,3.957,0,0,1,3.707-3.712,3.373,3.373,0,0,0,4.25,4.269A3.981,3.981,0,0,1,12.123,34.041Z"/><path d="M51.761,4.91c-3.886,0-7.048,3.863-7.048,8.612a9.3,9.3,0,0,0,2.953,6.995,17.161,17.161,0,0,1,3.181,8.241,1.494,1.494,0,0,0-.756,1.3v8.1a1.5,1.5,0,0,0,1.5,1.5h.339a1.5,1.5,0,0,0,1.5-1.5v-8.1a1.5,1.5,0,0,0-.753-1.293,17.178,17.178,0,0,1,3.208-8.27,9.3,9.3,0,0,0,2.924-6.968C58.809,8.773,55.646,4.91,51.761,4.91Zm6.048,8.612c0,.218-.033.424-.048.638H56.729V13.054H57.79C57.8,13.209,57.809,13.364,57.809,13.522ZM46.7,12.3h-.9A8.965,8.965,0,0,1,46,11.2h.7Zm0,.75V14.16H45.76c-.014-.214-.047-.42-.047-.638,0-.158.011-.313.019-.468Zm0,1.856v1.105h-.634a8.963,8.963,0,0,1-.249-1.105Zm0,1.855v.877a8.425,8.425,0,0,1-.379-.877Zm0-6.317h-.466a8.23,8.23,0,0,1,.466-1.08Zm1.392-2.962h.464V8.592H47.449v-.4A6.9,6.9,0,0,1,48.091,7.486ZM52.267,11.2V12.3H51.161V11.2Zm-1.106-.75V9.342h1.106v1.106Zm1.106,2.606V14.16H51.161V13.054Zm0,1.856v1.105H51.161V14.91Zm0,1.855v1.106H51.161V16.765Zm0,1.856v1.106H51.161V18.621Zm0-10.029H51.161V7.486h1.106Zm-1.856.75v1.106H49.305V9.342Zm-1.106-.75V7.486h1.106V8.592ZM50.411,11.2V12.3H49.305V11.2Zm0,1.856V14.16H49.305V13.054Zm0,1.856v1.105H49.305V14.91Zm0,1.855v1.106H49.305V16.765Zm0,1.856v1.106H49.305V18.621ZM49.305,6.736V6.573a5.148,5.148,0,0,1,1.106-.465v.628ZM47.449,14.16V13.054h1.106V14.16Zm1.106.75v1.105H47.449V14.91ZM47.449,12.3V11.2h1.106V12.3Zm0-1.856V9.342h1.106v1.106Zm0,6.317h1.106v1.106H47.449Zm2.962,3.712v.443a5.237,5.237,0,0,1-1.079-.443Zm.75,0h1.106v.609a3,3,0,0,1-1.106-.009Zm1.856-2.606V16.765h1.1v1.106Zm1.1.75v1.106h-1.1V18.621Zm-1.1-2.606V14.91h1.1v1.105Zm0-1.855V13.054h1.1V14.16Zm0-1.856V11.2h1.1V12.3Zm0-1.856V9.342h1.1v1.106Zm0-1.856V7.486h1.1V8.592Zm1.1,11.885v.033a5.137,5.137,0,0,1-1.1.437v-.47Zm-1.1-13.741V6.078a5.137,5.137,0,0,1,1.1.437v.221Zm2.962,1.341v.515H54.872V7.486h.559A6.867,6.867,0,0,1,55.979,8.077Zm1.31,2.371h-.56V9.342h.081A8.326,8.326,0,0,1,57.289,10.448ZM54.872,14.16V13.054h1.107V14.16Zm1.107.75v1.105H54.872V14.91ZM54.872,12.3V11.2h1.107V12.3Zm0-1.856V9.342h1.107v1.106Zm0,6.317h1.107v1.106H54.872Zm1.857,0H57.2a8.216,8.216,0,0,1-.472,1.037Zm0-.75V14.91h.976a8.962,8.962,0,0,1-.248,1.105Zm0-3.711V11.2h.789a9.355,9.355,0,0,1,.206,1.106ZM52.267,5.942v.794H51.161V5.948a4.387,4.387,0,0,1,1.106-.006Zm-4.818,12.81v-.131h1.106v1.106h-.234A10.649,10.649,0,0,0,47.449,18.752Zm4.981,19.4a.5.5,0,0,1-.5.5h-.339a.5.5,0,0,1-.5-.5v-8.1a.5.5,0,0,1,.5-.5h.339a.5.5,0,0,1,.5.5ZM51.762,28.1a19.181,19.181,0,0,0-2.1-6.352,5.849,5.849,0,0,0,4.2,0A19.207,19.207,0,0,0,51.762,28.1Zm3.442-8.37h-.332V18.621h1.107v.227A10.737,10.737,0,0,0,55.2,19.727Z"/></svg>