<svg xmlns="http://www.w3.org/2000/svg" viewBox="0 0 64 80" x="0px" y="0px"><title>tool-cooking-pan-kitchen-tools-cook-hanging-frying pan-house things-Tools and utensils-food and rest_2</title><g data-name="Layer 31"><path d="M60,13H57.949c.016-.334.051-.662.051-1a1,1,0,0,0-1-1H7a1,1,0,0,0-1,1c0,.338.035.666.051,1H4a3,3,0,0,0,0,6H7.225A21.018,21.018,0,0,0,27,33H37A21.018,21.018,0,0,0,56.775,19H60a3,3,0,0,0,0-6ZM4,17a1,1,0,0,1,0-2H6.24q.145,1.017.387,2ZM37,31H27A19.024,19.024,0,0,1,8.026,13H51.949A15.006,15.006,0,0,1,37,27v2A17.007,17.007,0,0,0,53.949,13h2.025A19.024,19.024,0,0,1,37,31ZM60,17H57.373q.242-.984.387-2H60a1,1,0,0,1,0,2Z"/><path d="M54,39H48V34a1,1,0,0,0-1-1H42v2h4v4H41V37H39v2H33V35H31v4H25V37H23v2H17V35h4V33H16a1,1,0,0,0-1,1v5H10a1,1,0,0,0-1,1V52a1,1,0,0,0,1,1H54a1,1,0,0,0,1-1V40A1,1,0,0,0,54,39Zm-1,2v2H11V41ZM23,49H41v2H23Zm18-2H23V45H41ZM11,45H21v6H11Zm32,6V45H53v6Z"/><rect x="13" y="47" width="2" height="2"/><rect x="17" y="47" width="2" height="2"/><rect x="49" y="47" width="2" height="2"/><rect x="45" y="47" width="2" height="2"/></g></svg>