<svg xmlns="http://www.w3.org/2000/svg" viewBox="0 0 60 75" x="0px" y="0px"><defs><style>.cls-1{fill:none;stroke:#000;stroke-linecap:round;stroke-linejoin:round;stroke-width:2px;}</style></defs><title>Movies - Outline - 073 - X Wing</title><line class="cls-1" x1="32.95982" y1="39.7079" x2="42.81249" y2="49.56056"/><line class="cls-1" x1="36.67569" y1="55.47217" x2="24.52875" y2="48.13897"/><path class="cls-1" d="M19.79266,33.16972l-3.88537,7.1145a2.12965,2.12965,0,0,0,.42825,2.50473l.85741.85741a2.12641,2.12641,0,0,0,2.53088.41369l7.51509-4.26135"/><path class="cls-1" d="M24.63542,34.26928H28.6165a0,0,0,0,1,0,0V52.18413a0,0,0,0,1,0,0H26.63542a2,2,0,0,1-2-2V34.26928A0,0,0,0,1,24.63542,34.26928Z" transform="translate(14.88747 92.62) rotate(-135)"/><path class="cls-1" d="M15.753,49.32943h6.96689a0,0,0,0,1,0,0v2.98108a1,1,0,0,1-1,1H16.753a1,1,0,0,1-1-1V49.32943A0,0,0,0,1,15.753,49.32943Z" transform="translate(-3.45 101.2109) rotate(-135)"/><rect class="cls-1" x="39.41443" y="47.81152" width="3.98108" height="11.94324" rx="1" ry="1" transform="translate(32.65228 121.09129) rotate(-135)"/><line class="cls-1" x1="45.62754" y1="49.56056" x2="56.88773" y2="38.30037"/><line class="cls-1" x1="55.48021" y1="36.89285" x2="58.29526" y2="39.7079"/><line class="cls-1" x1="56.88773" y1="38.30037" x2="58.99902" y2="36.18908"/><line class="cls-1" x1="20.2921" y1="27.04018" x2="10.43944" y2="17.18751"/><line class="cls-1" x1="11.86103" y1="35.47125" x2="4.52783" y2="23.32431"/><path class="cls-1" d="M16.78275,24.41661h1.98108a0,0,0,0,1,0,0V42.33147a0,0,0,0,1,0,0H14.78275a0,0,0,0,1,0,0V26.41661A2,2,0,0,1,16.78275,24.41661Z" transform="translate(28.51179 -2.08548) rotate(45)"/><path class="cls-1" d="M6.19659,38.773h4.96689a1,1,0,0,1,1,1v2.98108a0,0,0,0,1,0,0H5.19659a0,0,0,0,1,0,0V39.773A1,1,0,0,1,6.19659,38.773Z" transform="translate(31.3665 5.80166) rotate(45)"/><rect class="cls-1" x="4.22632" y="12.62341" width="3.98108" height="11.94324" rx="1" ry="1" transform="translate(14.96955 1.05037) rotate(45)"/><line class="cls-1" x1="10.43944" y1="14.37246" x2="21.69963" y2="3.11227"/><line class="cls-1" x1="23.10715" y1="4.51979" x2="20.2921" y2="1.70474"/><line class="cls-1" x1="21.69963" y1="3.11227" x2="23.81092" y2="1.00098"/><line class="cls-1" x1="42.00317" y1="23.4158" x2="36.5842" y2="17.99683"/><line class="cls-1" x1="42.00317" y1="23.4158" x2="36.5842" y2="17.99683"/><path class="cls-1" d="M31.5523,35.48532,49.79643,14.42615,53.50436,7.8438A.97738.97738,0,0,0,52.1562,6.49564l-6.58234,3.70793L24.51468,28.4477"/><polyline class="cls-1" points="45 20 45 19.954 45.626 14.374 40.046 15 40 15"/><line class="cls-1" x1="24.51468" y1="36.89285" x2="23.10715" y2="35.48532"/><path class="cls-1" d="M30.72779,31.26275a1.99054,1.99054,0,0,0-1.99054-1.99054"/><polyline class="cls-1" points="31.552 52.376 35.071 48.857 29.441 43.227"/><polyline class="cls-1" points="7.624 28.448 11.143 24.929 16.773 30.559"/></svg>